<svg width="31" height="43" viewBox="0 0 31 43" fill="none" xmlns="http://www.w3.org/2000/svg">
<path d="M29.5243 11.6298C29.4814 11.5607 29.4152 11.5073 29.3516 11.5566C29.194 11.6784 29.0515 11.8313 29.037 12.0438C29.0203 12.2909 29.0286 12.5403 29.011 12.7885C28.9946 13.0241 28.9865 13.2603 28.9748 13.4964C28.9721 13.5493 28.9632 13.6004 28.9192 13.6668C28.9192 13.6034 28.9172 13.5627 28.9194 13.5224C28.933 13.2787 28.9476 13.0354 28.9616 12.792C28.9794 12.4829 28.9368 12.1744 28.9596 11.8647C28.9717 11.7016 28.8796 11.5787 28.7242 11.5363C28.5946 11.5008 28.5204 11.5946 28.453 11.6874C28.3945 11.7679 28.3641 11.8573 28.3661 11.9625C28.3712 12.231 28.3678 12.4997 28.3678 12.7682C28.3678 12.8785 28.3678 12.9886 28.3678 13.1173C28.3336 13.0678 28.3432 13.0326 28.3432 12.9992C28.3423 12.7728 28.3485 12.5463 28.3403 12.3201C28.3323 12.0965 28.3398 11.8695 28.2549 11.6553C28.2067 11.5333 28.1129 11.4737 27.9772 11.4873C27.8383 11.5011 27.7107 11.6045 27.7007 11.7235C27.6931 11.8147 27.6925 11.9084 27.7031 11.9994C27.7507 12.4003 27.8023 12.8005 27.8359 13.2032C27.8456 13.3211 27.8427 13.4404 27.8594 13.5567C27.905 13.8765 27.9063 14.2001 27.9586 14.5206C28.0117 14.8455 28.0037 15.1805 28.0377 15.5094C28.0506 15.6346 28.0535 15.7606 28.0688 15.8859C28.1084 16.2099 28.1366 16.5352 28.1678 16.8601C28.1764 16.9502 28.1386 17.022 28.0764 17.0835C27.9032 17.255 27.7283 17.4248 27.56 17.6011C27.2152 17.9622 26.847 18.2972 26.4617 18.6086C26.0084 18.9752 25.5358 19.3155 25.0285 19.6022C24.6423 19.8205 24.2457 20.0139 23.8422 20.1928C23.4458 20.3685 23.0399 20.5189 22.6215 20.6271C22.2447 20.7248 21.8636 20.81 21.4759 20.8443C21.2271 20.8664 20.9821 20.9184 20.7305 20.9223C20.5171 20.9255 20.3028 20.9502 20.0898 20.9366C19.7532 20.915 19.4173 20.88 19.0814 20.8479C18.8579 20.8265 18.6316 20.8169 18.4122 20.7726C18.0336 20.6964 17.6501 20.6474 17.2751 20.5502C16.938 20.4629 16.5961 20.3962 16.2598 20.3066C15.8129 20.1875 15.3707 20.0501 14.9239 19.9303C14.64 19.8541 14.357 19.7721 14.0762 19.6867C13.4626 19.5004 12.8448 19.3362 12.2194 19.2004C11.9682 19.1458 11.7092 19.1292 11.4613 19.068C11.1041 18.98 10.7397 18.9501 10.3807 18.8801C9.97873 18.8015 9.567 18.7974 9.15861 18.7797C8.91207 18.7691 8.66463 18.784 8.41764 18.7926C8.04037 18.8057 7.67156 18.8607 7.30585 18.9478C6.89012 19.0465 6.49018 19.19 6.10558 19.3848C5.79078 19.5444 5.49133 19.7279 5.21388 19.9476C4.7508 20.3144 4.35219 20.7464 4.00538 21.2332C3.67613 21.6949 3.41203 22.1939 3.18904 22.7157C2.97296 23.2218 2.79866 23.745 2.65772 24.2797C2.60369 24.4851 2.57457 24.6955 2.53144 24.9025C2.48876 25.107 2.45541 25.3115 2.42673 25.518C2.40094 25.703 2.40472 25.8922 2.37493 26.0739C2.33425 26.3228 2.3069 26.5713 2.29268 26.8225C2.28601 26.9384 2.27756 27.0535 2.27867 27.1698C2.27934 27.2384 2.268 27.3077 2.34047 27.334C2.41495 27.3609 2.45785 27.3132 2.49587 27.2439C2.68217 26.9054 2.83979 26.551 3.02942 26.2139C3.32065 25.696 3.65346 25.2081 4.01627 24.7434C4.32329 24.3504 4.65498 23.9787 5.00957 23.6287C5.39195 23.2513 5.80101 22.9086 6.24919 22.6238C6.73695 22.3138 7.25183 22.0553 7.80917 21.8991C8.24023 21.7785 8.67552 21.694 9.12393 21.6986C9.25621 21.6999 9.38582 21.7112 9.51787 21.7336C9.96428 21.8091 10.4102 21.8823 10.8217 22.09C11.1145 22.2379 11.3682 22.4345 11.51 22.7518C11.6074 22.9694 11.643 23.1921 11.6138 23.4369C11.5841 23.689 11.5285 23.9345 11.444 24.1661C11.3042 24.5498 11.1107 24.9097 10.904 25.2608C10.7506 25.5213 10.5919 25.778 10.4214 26.0263C10.1135 26.4739 9.78709 26.9066 9.44317 27.3257C9.14727 27.686 8.8556 28.0503 8.54347 28.3955C8.22356 28.7492 7.90343 29.1029 7.57907 29.4522C7.24205 29.8153 6.93548 30.2063 6.61712 30.5865C6.39303 30.8541 6.17494 31.1276 5.95752 31.4014C5.72809 31.6907 5.50133 31.9819 5.28946 32.2843C4.94154 32.7808 4.60407 33.2848 4.26749 33.7896C3.83642 34.4362 3.4407 35.1065 3.06255 35.7872C2.77198 36.3101 2.49765 36.8427 2.21753 37.3716C1.87673 38.0148 1.57238 38.6766 1.27848 39.3437C1.12508 39.6921 0.981692 40.0455 0.843191 40.4006C0.621988 40.9678 0.416571 41.5414 0.231606 42.1223C0.14935 42.3805 0.0799877 42.643 0.00462335 42.9034C-0.0122725 42.9822 0.0170729 43.0105 0.0937712 42.9967C0.103553 42.9948 0.113779 42.9941 0.123783 42.9939C0.129119 42.9925 0.134455 42.9911 0.140012 42.99C0.158687 42.9856 0.176027 42.9792 0.19359 42.9706C0.204706 42.9654 0.214487 42.958 0.225825 42.9543C0.701799 42.4806 1.17622 42.0056 1.63974 41.5186C2.07725 41.0587 2.50165 40.5862 2.92583 40.1135C3.14592 39.8682 3.36023 39.6177 3.57609 39.3688C3.99671 38.8838 4.41977 38.4009 4.83594 37.9119C5.11095 37.5886 5.37572 37.2563 5.63916 36.9224C5.96463 36.51 6.28943 36.0962 6.64558 35.7102C6.96971 35.3591 7.28251 34.9976 7.58619 34.6271C7.84429 34.3123 8.1333 34.0267 8.40897 33.7285C8.98076 33.11 9.59279 32.5369 10.2495 32.0176C10.7237 31.6428 11.2281 31.3137 11.7608 31.033C12.1832 30.8103 12.6196 30.6185 13.072 30.4753C13.6994 30.2766 14.3427 30.1405 15.0001 30.1308C15.6108 30.1218 16.2251 30.0797 16.8313 30.2116C17.0743 30.2646 17.3209 30.2952 17.5603 30.3719C17.8784 30.4737 18.1645 30.6296 18.4104 30.8596C18.7121 31.1419 18.8917 31.488 18.8988 31.9189C18.9022 32.1141 18.9022 32.3094 18.8673 32.501C18.829 32.7101 18.8066 32.9265 18.7274 33.1227C18.4562 33.7953 18.1492 34.4498 17.769 35.0657C17.4669 35.555 17.1499 36.0331 16.8089 36.4936C16.38 37.073 15.9156 37.6219 15.4492 38.1686C15.3861 38.2425 15.3605 38.3139 15.4292 38.3904C15.4946 38.4629 15.5766 38.4581 15.6497 38.4028C16.073 38.0843 16.5363 37.8306 16.9658 37.5222C17.3478 37.248 17.7348 36.9813 18.1125 36.7011C18.4996 36.4142 18.8759 36.1118 19.2434 35.7982C19.5538 35.5334 19.863 35.2665 20.1536 34.9784C20.6347 34.5016 21.0771 33.9906 21.449 33.4149C21.6357 33.1259 21.8087 32.8305 21.9377 32.5102C22.1542 31.9723 22.2289 31.4159 22.1709 30.8313C22.1308 30.4281 21.9997 30.07 21.7929 29.7375C21.4868 29.2447 21.0693 28.8662 20.6007 28.5477C20.164 28.2509 19.6987 28.0073 19.2132 27.809C18.958 27.7047 18.6974 27.6142 18.436 27.5267C17.9856 27.3756 17.5305 27.2458 17.065 27.1569C16.7335 27.0936 16.4058 27.0201 16.1019 26.861C15.9052 26.758 15.7269 26.6236 15.6099 26.4329C15.431 26.1412 15.4952 25.8441 15.6646 25.5719C15.8396 25.291 16.0755 25.066 16.3231 24.8533C16.7148 24.5166 17.1668 24.3045 17.6512 24.1654C17.9562 24.0779 18.2744 24.0623 18.5887 24.0432C19.1196 24.0107 19.6523 24.0581 20.1843 24.0068C20.4622 23.9798 20.744 23.9743 21.0179 23.923C21.5148 23.8297 22.0077 23.7176 22.4888 23.5483C23.2695 23.2736 24.0145 22.9296 24.7097 22.4663C25.1714 22.1584 25.5831 21.7918 25.9722 21.396C26.3617 20.9995 26.727 20.5797 27.0671 20.136C27.3261 19.7984 27.5651 19.4479 27.7916 19.0866C27.9479 18.8372 28.0951 18.5828 28.24 18.3267C28.2743 18.2664 28.3094 18.2505 28.3561 18.3141C28.3714 18.335 28.3934 18.3507 28.4114 18.37C28.5655 18.5349 28.5704 18.5413 28.7418 18.3999C28.8814 18.2848 28.9948 18.1501 28.9928 17.9408C28.9919 17.86 28.995 17.7715 29.0141 17.6926C29.0697 17.4621 29.077 17.2265 29.099 16.9923C29.1168 16.803 29.1226 16.6108 29.1504 16.4245C29.1966 16.1152 29.2255 15.8046 29.2549 15.4939C29.2713 15.3203 29.2744 15.1442 29.3065 14.9738C29.3467 14.7596 29.3676 14.5441 29.3878 14.3281C29.4067 14.1236 29.4181 13.9182 29.4387 13.7137C29.463 13.4719 29.4943 13.2311 29.521 12.9898C29.5501 12.7256 29.5817 12.4615 29.6037 12.1965C29.6197 12.0031 29.6348 11.8071 29.5248 11.6305L29.5243 11.6298Z" fill="white"/>
<path d="M30.7683 3.57914C30.5602 3.48842 30.3266 3.57385 30.2128 3.74125C30.0678 3.95448 29.9329 4.17508 29.7966 4.39476C29.7841 4.41479 29.7728 4.43529 29.7599 4.45463L29.7034 4.54489C29.6283 4.6948 29.5272 4.82698 29.3524 4.84355C29.1079 4.86658 28.9549 4.75882 28.9227 4.44404C28.8744 3.96991 28.8893 3.49855 29.0127 3.03617C29.0843 2.76813 29.1883 2.51346 29.3269 2.27444C29.5323 1.92051 29.6156 1.54218 29.5723 1.12746C29.5389 0.807617 29.4607 0.508036 29.3048 0.22941C29.2759 0.177829 29.2366 0.146513 29.2124 0.0795041C29.1921 -0.0146762 29.081 -0.0377032 29.079 0.0795041C29.0781 0.141447 29.0916 0.199244 29.1145 0.257272C29.338 0.825808 29.3331 1.39642 29.1094 1.9615C28.9765 2.29746 28.8249 2.6256 28.6833 2.95788C28.4912 3.40874 28.4207 3.87872 28.5105 4.36436C28.5999 4.84701 28.7931 5.29327 28.9896 5.73723C29.1177 6.02622 29.2264 6.32465 29.2964 6.63252C29.3791 6.99519 29.416 7.36478 29.3733 7.74196C29.3429 8.01045 29.261 8.25707 29.155 8.49817C29.1397 8.53294 29.1319 8.58705 29.0805 8.59856C29.0925 8.64784 29.0192 8.69965 29.0776 8.74386C29.1363 8.78854 29.1795 8.73327 29.2233 8.70242C29.2413 8.68975 29.2553 8.68284 29.2666 8.70633C29.3137 8.80442 29.3962 8.84012 29.5011 8.84242C29.3922 8.85693 29.2888 8.86061 29.1859 8.85647C28.8349 8.84242 28.4832 8.87005 28.1324 8.83781C27.7498 8.80281 27.3669 8.78784 26.9837 8.82791C26.911 8.83551 26.8603 8.88157 26.891 8.94696C26.9977 9.17355 27.1273 9.38309 27.3614 9.49638C27.5383 9.58204 27.7242 9.61106 27.9167 9.61106C28.5534 9.6106 29.1903 9.60001 29.8266 9.61497C30.2065 9.62395 30.506 9.36674 30.614 9.02111C30.6481 8.91242 30.6194 8.86406 30.5082 8.85854C30.4122 8.8537 30.3157 8.85739 30.2197 8.85739C30.0569 8.85739 29.8944 8.85739 29.7317 8.85739C30.016 8.78186 30.2119 8.66764 30.3633 8.48527C30.6496 8.14033 30.6994 7.73943 30.6232 7.31089C30.5702 7.01316 30.4595 6.73407 30.3542 6.45291C30.291 6.28435 30.221 6.11649 30.1825 5.93849C30.1683 5.89566 30.1574 5.85145 30.1507 5.80677C30.1454 5.77039 30.1414 5.73355 30.1412 5.6967C30.1412 5.67368 30.1443 5.65065 30.1465 5.62785C30.1423 5.57282 30.1521 5.52469 30.1825 5.38791C30.1925 5.34301 30.2077 5.29028 30.1572 5.26564C30.1063 5.24077 30.0709 5.27232 30.0403 5.31998C29.9209 5.50604 29.9211 5.7119 29.9311 5.92375C29.9482 6.28596 30.0549 6.63298 30.0858 6.99358C30.1145 7.32747 30.0921 7.64594 29.9455 7.94506C29.8279 8.18546 29.6948 8.41826 29.4473 8.54583C29.4282 8.55573 29.4113 8.57438 29.3806 8.55688C29.514 8.37566 29.6683 8.21263 29.771 8.00815C29.8833 7.78456 29.9384 7.54669 29.966 7.30053C30.0031 6.97194 29.9758 6.64357 29.9311 6.31843C29.8875 6.00204 29.8757 5.6822 29.9071 5.36949C29.9751 4.69158 30.1721 4.06916 30.7677 3.67148C30.8146 3.64684 30.8146 3.60079 30.7677 3.57937L30.7683 3.57914Z" fill="white"/>
<path d="M15.4074 15.1306C15.4261 14.5784 15.5433 14.0529 15.8334 13.5827C16.1655 13.0441 16.6124 12.6528 17.2044 12.4373C17.5303 12.3187 17.8604 12.2729 18.1981 12.2865C18.8233 12.3118 19.374 12.5511 19.8348 12.9851C20.2759 13.4003 20.56 13.9124 20.6816 14.5263C20.7501 14.8722 20.7808 15.2155 20.7352 15.5614C20.672 16.0401 20.5247 16.4887 20.2548 16.8921C20.0258 17.2345 19.7414 17.5097 19.3993 17.7234C19.1717 17.8655 18.9249 17.9573 18.6668 18.022C18.0854 18.1676 17.5296 18.072 16.9848 17.8457C16.5815 17.678 16.2505 17.4121 15.9875 17.0574C15.7378 16.7208 15.5748 16.3388 15.4997 15.9222C15.4526 15.6616 15.3983 15.3997 15.4072 15.1303L15.4074 15.1306Z" fill="white"/>
<path d="M29.0777 8.5986C29.0415 8.56337 29.0266 8.60044 29.0152 8.62301C28.9965 8.65985 28.9694 8.67367 28.9334 8.664C28.8905 8.65225 28.8798 8.61311 28.8785 8.57396C28.8758 8.48968 28.8772 8.40517 28.8761 8.3209C28.8758 8.29879 28.8783 8.273 28.8449 8.26885C28.816 8.30823 28.8367 8.35613 28.826 8.39942C28.7631 8.65778 28.6749 8.74068 28.4052 8.76739C28.0119 8.8063 27.6309 8.74966 27.2961 8.52491C26.8946 8.2555 26.6254 7.8744 26.4742 7.39982C26.3821 7.1106 26.381 6.81056 26.3368 6.51558C26.2688 6.06218 26.2023 5.60648 26.052 5.17127C26.0273 5.10011 26.0362 5.0285 26.0298 4.95689C26.0251 4.90577 26.0556 4.88504 26.0898 4.87767C26.1287 4.86915 26.1492 4.89333 26.1669 4.93685C26.2748 5.20212 26.3815 5.46785 26.4722 5.74003C26.5002 5.82408 26.5253 5.84342 26.5944 5.78079C26.6556 5.7253 26.7321 5.74924 26.8054 5.75868C26.8285 5.5549 26.7512 5.37252 26.7136 5.18324C26.692 5.07455 26.6798 4.96471 26.682 4.85349C26.6825 4.83093 26.6807 4.80376 26.7078 4.79662C26.7374 4.78879 26.7423 4.81872 26.7532 4.83714C26.835 4.97761 26.8861 5.13028 26.9195 5.28962C26.9246 5.3138 26.9273 5.3343 26.9639 5.34443C26.9702 5.20258 26.9388 5.06419 26.9106 4.93409C26.8583 4.69277 26.8686 4.45352 26.8952 4.21657C26.9175 4.01877 26.9482 3.81912 27.0091 3.62639C27.1353 3.22756 27.341 2.88169 27.6282 2.58672C27.7351 2.47688 27.8376 2.36221 27.9617 2.27102C27.9972 2.24477 28.0257 2.19065 28.0713 2.23164C28.1184 2.27424 28.1108 2.33734 28.0766 2.3873C28.017 2.47458 27.9548 2.56024 27.8885 2.64244C27.7038 2.87156 27.5471 3.11841 27.427 3.39059C27.2916 3.69708 27.2427 4.01808 27.2581 4.37983C27.319 4.23821 27.3463 4.09429 27.5155 4.09936C27.6431 4.10328 27.7134 4.18157 27.758 4.3119C27.8318 4.18617 27.8472 4.05745 27.8823 3.93587C27.9752 3.61464 28.0824 3.30078 28.2811 3.02884C28.3152 2.98255 28.3436 2.93443 28.4032 2.97127C28.4579 3.00489 28.4463 3.059 28.4259 3.11358C28.3461 3.32542 28.262 3.53681 28.218 3.76017C28.1664 4.02107 28.0953 4.2815 28.1217 4.55138C28.1615 4.95804 28.2565 5.34696 28.4561 5.70687C28.5886 5.94566 28.7611 6.15452 28.8996 6.38801C29.0901 6.70901 29.2635 7.03898 29.2969 7.42261C29.3305 7.80901 29.2756 8.18089 29.0857 8.52376C29.0739 8.54518 29.0412 8.56982 29.0764 8.59975L29.0777 8.59837V8.5986Z" fill="white"/>
<path d="M28.7199 11.1773C28.4716 11.1902 28.1968 11.1414 27.9354 11.0156C27.6884 10.8968 27.5179 10.7011 27.4432 10.4351C27.3945 10.2615 27.4334 10.1963 27.6082 10.2113C28.3284 10.273 29.0503 10.2401 29.7715 10.2493C29.8302 10.25 29.8889 10.2592 29.9478 10.2622C30.0905 10.2693 30.1432 10.3697 30.0861 10.5067C29.9089 10.9307 29.5527 11.073 29.1548 11.1543C29.0232 11.1812 28.8907 11.1766 28.7199 11.1773Z" fill="white"/>
<path d="M28.7604 10.2078C28.5315 10.2085 28.2991 10.2315 28.0748 10.1802C27.8741 10.1341 27.6622 10.1284 27.4757 10.022C27.4237 9.9923 27.3848 9.95937 27.389 9.89098C27.3934 9.81868 27.4446 9.79703 27.4984 9.7793C27.6913 9.71598 27.8887 9.69019 28.0915 9.67361C28.2578 9.66002 28.4219 9.69088 28.5828 9.67453C28.8049 9.65219 29.0245 9.68535 29.2475 9.66532C29.4985 9.64275 29.7575 9.68397 30.0043 9.76341C30.0648 9.78275 30.1148 9.8196 30.1119 9.89121C30.1081 9.98654 30.0416 10.0418 29.964 10.0664C29.6737 10.1588 29.3758 10.2085 29.0712 10.2078C28.9676 10.2076 28.864 10.2078 28.7604 10.2078Z" fill="white"/>
<path d="M29.3582 4.64831C29.5792 4.64831 29.7583 4.46274 29.7583 4.23382C29.7583 4.00491 29.5792 3.81934 29.3582 3.81934C29.1372 3.81934 28.958 4.00491 28.958 4.23382C28.958 4.46274 29.1372 4.64831 29.3582 4.64831Z" fill="white"/>
<path d="M30.4812 6.08811C30.6531 6.08811 30.7924 5.94378 30.7924 5.76574C30.7924 5.58769 30.6531 5.44336 30.4812 5.44336C30.3093 5.44336 30.1699 5.58769 30.1699 5.76574C30.1699 5.94378 30.3093 6.08811 30.4812 6.08811Z" fill="white"/>
</svg>
